<?xml version="1.0" ?><!DOCTYPE svg  PUBLIC '-//W3C//DTD SVG 1.1//EN'  'http://www.w3.org/Graphics/SVG/1.1/DTD/svg11.dtd'><svg height="96" version="1.1" viewBox="0 0 96 96" width="96" xmlns="http://www.w3.org/2000/svg" xmlns:xlink="http://www.w3.org/1999/xlink"><path d="M52.204 60.664l11.72-7.812c1.196 0.712 2.576 1.148 4.068 1.148 4.412 0 8-3.584 8-8s-3.588-8-8-8c-4.356 0-7.904 3.508-7.984 7.852l-8.016 5.344v-14.432c0.076-0.040 0.152-0.056 0.22-0.096l11.716-7.812c1.2 0.716 2.58 1.148 4.072 1.148 4.416 0 8-3.584 8-8s-3.584-8-8-8c-4.36 0-7.908 3.508-7.984 7.852l-8.024 5.344v-27.2h-8v15.196l-8.016-5.344c-0.084-4.344-3.624-7.852-7.984-7.852-4.412 0-8 3.584-8 8s3.588 8 8 8c1.492 0 2.868-0.436 4.068-1.148l11.716 7.812c0.068 0.048 0.148 0.064 0.22 0.1v14.424l-8.016-5.34c-0.084-4.344-3.628-7.852-7.984-7.852-4.412 0-8 3.584-8 8 0 4.412 3.588 8 8 8 1.492 0 2.872-0.432 4.068-1.148l11.716 7.812c0.068 0.052 0.148 0.068 0.22 0.096v14.428l-8.016-5.344c-0.084-4.34-3.628-7.848-7.984-7.848-4.412 0-8 3.584-8 8s3.588 8 8 8c1.492 0 2.872-0.436 4.068-1.148l11.716 7.812c0.068 0.048 0.148 0.064 0.22 0.1v23.244h8v-11.236c0.076-0.040 0.152-0.060 0.22-0.1l11.716-7.812c1.2 0.712 2.58 1.148 4.072 1.148 4.416 0 8-3.584 8-8s-3.584-8-8-8c-4.356 0-7.908 3.508-7.984 7.852l-8.016 5.344v-14.428c0.044-0.040 0.124-0.056 0.192-0.104z" fill="#000000"/></svg>